# xmcd CD database file generated by OrangeCD 5.0
#
# Track frame offsets:
#	150
#	13437
#	25740
#	36755
#	49330
#	61270
#	74800
#	87125
#	98545
#	111197
#	123197
#	136797
#	147905
#	159815
#	175320
#	189255
#	203230
#	215742
#	225917
#	240187
#	253702
#	267675
#	281432
#	294930
#	306737
#	320747
#
# Disc length: 4457 seconds
#
# Revision: 0
# Processed by: cddbd v1.4PL0 Copyright (c) Steve Scherf et al.
# Submitted via: OrangeCD 5.0
#
DISCID=7b11671a
DTITLE=Various Artist - Rural Blues (Vol 1) 1934-1956
DYEAR=1900
DGENRE=Blues
TTITLE0=Willie Lane - Up And Down Building K.C. Line
TTITLE1=Willie Lane - Prowlin'ground Hog
TTITLE2=Willie Lane - Too Many Women Blues
TTITLE3=Willie Lane - Howling Wolfe Blues
TTITLE4=Willie Lane - Black Cat Rag
TTITLE5=Willie Lane - Black Cat Rag (Vol2)
TTITLE6=Black Diamond - T.P. Railer
TTITLE7=Black Diamond - Lonesome Blues
TTITLE8=Goldrush - All My Money Is Gone
TTITLE9=Monroe Moe Jackson - Move It On Over
TTITLE10=Monroe Moe Jackson - Go 'way From My Door
TTITLE11=Johnny Beck (The Blind Boy) - Locked In Jail Blues
TTITLE12=Johnny Beck (The Blind Boy) - You've Gotta Lay Down Mama
TTITLE13=John Lee - Baby Blues
TTITLE14=John Lee - Baby Please Don't Go
TTITLE15=John Lee - Down At The Depot
TTITLE16=John Lee - Alabama Boogie
TTITLE17=John Lee - Blind's Blues
TTITLE18=Julius King - Mississippi Boogie
TTITLE19=Julius King - One O'clock Boogie
TTITLE20=Julius King - If You See My Lover
TTITLE21=Julius King - I Want A Slice Of Your Pudding
TTITLE22=D.A. Hunt - Lonesome Old Jail
TTITLE23=D.A. Hunt - Greyhound Blues
TTITLE24=One String Sam - My Baby Ooo
TTITLE25=One String Sam - I Need A Hundred Dollars
EXTD=
EXTT0=
EXTT1=
EXTT2=
EXTT3=
EXTT4=
EXTT5=
EXTT6=
EXTT7=
EXTT8=
EXTT9=
EXTT10=
EXTT11=
EXTT12=
EXTT13=
EXTT14=
EXTT15=
EXTT16=
EXTT17=
EXTT18=
EXTT19=
EXTT20=
EXTT21=
EXTT22=
EXTT23=
EXTT24=
EXTT25=
PLAYORDER=
